# xmcd
# Copyright (c) 1998 CDDB Inc.
#
# Track frame offsets:
#	150
#	10295
#	20397
#	32554
#	44201
#	67471
#	86031
#	102293
#	122417
#	136502
#	148934
#	165742
#
# Disc length: 2440 seconds
#
# Revision: 0
# Processed by: cddbd v1.5.2PL0 Copyright (c) Steve Scherf et al.
# Submitted via: AudioCatalyst 2.10full
#
DISCID=a709860c
DTITLE=Doriano Tartarini Valerio Risso - Street guitars
DYEAR=1900
DGENRE=
TTITLE0=djangology
TTITLE1=it don't mean a thing
TTITLE2=gypsymania
TTITLE3=minor swing
TTITLE4=A blues
TTITLE5=sweet georgia brown
TTITLE6=just a gigolò
TTITLE7=meditation
TTITLE8=pulp fiction theme
TTITLE9=apache
TTITLE10=this masquerade
TTITLE11=europa
EXTD=email: mir_155@yahoo.it
EXTT0=
EXTT1=
EXTT2=
EXTT3=
EXTT4=
EXTT5=
EXTT6=
EXTT7=
EXTT8=
EXTT9=
EXTT10=
EXTT11=
PLAYORDER=
